<svg width="1413" height="275" viewBox="0 0 1413 275" fill="none" xmlns="http://www.w3.org/2000/svg">
<path d="M273.116 113.188C269.227 38.8615 197.926 11.7424 129.218 11.7424H0.877441V370.317H1458V11.7424H1343.92C1264.84 11.7424 1212.99 39.8659 1200.02 113.188C1184.47 101.135 1145.57 102.139 1123.54 113.188C1106.68 35.8483 983.528 44.888 973.157 113.188C960.193 108.166 938.155 110.175 931.673 124.236C894.078 113.188 865.558 120.219 837.038 135.285C794.257 124.236 750.181 135.285 734.624 163.408C695.733 128.254 650.36 124.236 602.394 135.285C560.909 116.676 546.65 108.166 501.277 113.188C483.128 29.8218 353.491 51.9188 350.898 113.188C324.971 104.148 295.154 105.153 273.116 113.188Z" fill="url(#paint0_radial_229_437)"/>
<path d="M213.376 34.6079C205.929 15.4082 198.774 8.01436 177.939 3.96063H120.057V219.48H1371.01V3.96063H1291.86C1267.09 7.37805 1254.88 11.4157 1245.79 34.6079C1209.18 27.6872 1191.46 34.6079 1173.74 52.4032C1127.67 24.7214 1065.06 23.7327 1028.44 64.2666C988.281 3.95974 883.149 -25.6984 794.555 34.6079C746.123 3.96063 694.148 9.89202 656.347 34.6079C591.378 -17.7894 492.153 -12.8455 434.271 64.2666C394.109 27.688 331.502 24.7222 288.977 52.4032C267.714 34.6079 241.726 29.6653 213.376 34.6079Z" fill="url(#paint1_radial_229_437)"/>
<path d="M876.111 81.3868C862.179 30.4668 829.671 26.3378 787.211 26.3388H739.443V220.383H1211.81V26.3388H1146.79C1093.47 25.5117 1068.18 26.3391 1054.58 81.3868C1023.06 71.7528 999.511 92.3958 996.194 126.113C979.94 114.759 950.748 111.663 929.187 126.113C929.187 91.7077 901.654 75.8814 876.111 81.3868Z" fill="url(#paint2_radial_229_437)"/>
<defs>
<radialGradient id="paint0_radial_229_437" cx="0" cy="0" r="1" gradientUnits="userSpaceOnUse" gradientTransform="translate(729.439 81.0468) rotate(90) scale(179.789 730.602)">
<stop stop-color="#DB684C"/>
<stop offset="1" stop-color="#FF8F70" stop-opacity="0"/>
</radialGradient>
<radialGradient id="paint1_radial_229_437" cx="0" cy="0" r="1" gradientUnits="userSpaceOnUse" gradientTransform="translate(731.948 55.3629) rotate(90) scale(164.111 572.591)">
<stop stop-color="#F0A795"/>
<stop offset="1" stop-color="#FF8C70" stop-opacity="0"/>
</radialGradient>
<radialGradient id="paint2_radial_229_437" cx="0" cy="0" r="1" gradientUnits="userSpaceOnUse" gradientTransform="translate(966.339 83.9932) rotate(84.4928) scale(96.7808 183.306)">
<stop stop-color="#FF8C70"/>
<stop offset="1" stop-color="#FF8C70" stop-opacity="0"/>
</radialGradient>
</defs>
</svg>
